# xmcd CD database file
#
# Track frame offsets:
#	150
#	22136
#	33453
#	57743
#	83859
#	101057
#	126320
#	150170
#	159237
#	176386
#	190561
#
# Disc length: 2710 seconds
#
# Revision: 0
# Processed by: cddbd v1.5.1PL0 Copyright (c) Steve Scherf et al.
# Submitted via: CDex 1.51
#
DISCID=850a940b
DTITLE=Scora Quartet - Berlin, die Sinfonie der Grossstadt
DYEAR=2002
DGENRE=Jazz
TTITLE0=Travel
TTITLE1=Interlude I
TTITLE2=Berlin 1
TTITLE3=Morning
TTITLE4=Machines
TTITLE5=Lament
TTITLE6=Harmonica Theme
TTITLE7=Interlude II
TTITLE8=Streetblues
TTITLE9=Berlin II
TTITLE10=Charleston
EXTD=YEAR: 2002
EXTT0=
EXTT1=
EXTT2=
EXTT3=
EXTT4=
EXTT5=
EXTT6=
EXTT7=
EXTT8=
EXTT9=
EXTT10=
PLAYORDER=
